#!OML:ASF X:\für Bonn\!DataBase\2005_08_10_Bjorn_Final\c3d\bjorn.ASF
:FULLY-SPECIFIED
:DEGREES
31
root 4.2433 21.3977 -20.4725 4.90632 -1.46318 362.273
lowerback -9.11057 0.101645 1.20716
upperback 3.57316 -0.0883159 0.834171
thorax 8.91954 -0.00148138 0.191922
lowerneck 2.04381 -0.647857 3.32487
upperneck -3.09709 -0.912704 -4.69538
head -1.36317 -0.418588 -2.03863
rclavicle -2.28602e-015 1.66979e-014
rhumerus -58.7865 -29.8423 -48.4572
rradius 80.6717
rwrist -39.8918
rhand -20.2034 9.2946
rfingers 7.12502
rthumb 6.14344 -20.5963
lclavicle -2.28602e-015 1.66979e-014
lhumerus -57.4187 14.4236 52.1453
lradius 70.7416
lwrist 51.0056
lhand -25.8863 -2.29394
lfingers 7.12502
lthumb 0.65559 27.6848
rfemur -6.43516 -2.41855 14.404
rtibia 36.9138
rfoot 21.8808 2.8902
rtoes -21.8893
lfemur -5.90748 5.00807 -16.8271
ltibia 34.9971
lfoot 23.5105 -1.18501
ltoes -29.5253
32
root 4.24152 21.6378 -20.2642 4.94577 -1.4266 362.271
lowerback -9.8057 0.069771 1.22731
upperback 3.46284 -0.14381 0.815626
thorax 9.20665 -0.0257993 0.152343
lowerneck 2.41964 -0.647415 3.1462
upperneck -2.89827 -0.895863 -4.47245
head -1.36064 -0.408197 -1.9333
rclavicle -2.38542e-015 -7.95139e-016
rhumerus -58.2113 -29.717 -48.0884
rradius 82.9735
rwrist -38.8765
rhand -19.198 9.54521
rfingers 7.12502
rthumb 7.114 -20.3152
lclavicle -2.38542e-015 -7.95139e-016
lhumerus -57.0852 13.8829 51.6844
lradius 72.6935
lwrist 50.0257
lhand -25.2665 -4.29459
lfingers 7.12502
lthumb 1.25413 25.6815
rfemur -6.49066 -2.70951 14.3919
rtibia 36.4988
rfoot 23.0365 2.03221
rtoes -20.0789
lfemur -5.86771 4.16948 -16.9314
ltibia 34.7011
lfoot 24.6696 -0.0524031
ltoes -26.3256
33
root 4.23976 21.8688 -20.061 4.95862 -1.43986 362.288
lowerback -10.3453 0.040405 1.19527
upperback 3.40653 -0.189685 0.831851
thorax 9.4618 -0.0495966 0.180078
lowerneck 2.41706 -0.632669 2.9506
upperneck -2.64025 -0.870914 -4.32293
head -1.27336 -0.397133 -1.84824
rclavicle 8.64713e-015 7.95139e-016
rhumerus -57.58 -29.6624 -47.7228
rradius 85.3969
rwrist -37.833
rhand -18.1401 9.73196
rfingers 7.12502
rthumb 8.13508 -20.0915
lclavicle 8.64713e-015 7.95139e-016
lhumerus -56.654 13.6139 51.3355
lradius 74.5258
lwrist 49.2296
lhand -24.4817 -6.23397
lfingers 7.12502
lthumb 2.01214 23.7363
rfemur -6.61052 -2.9747 14.3609
rtibia 36.2359
rfoot 23.665 1.38978
rtoes -18.5629
lfemur -5.89938 3.39677 -17.0901
ltibia 34.5957
lfoot 25.0672 0.772652
ltoes -23.3727
34
root 4.23737 22.0878 -19.862 4.94693 -1.4884 362.34
lowerback -10.7654 0.0454857 1.17696
upperback 3.36972 -0.183088 0.782284
thorax 9.66821 -0.0450786 0.139026
lowerneck 2.30136 -0.634188 2.82803
upperneck -2.44765 -0.868497 -4.1358
head -1.18871 -0.399583 -1.76423
rclavicle -1.18277e-014 -1.03368e-014
rhumerus -57.1368 -29.6574 -47.3403
rradius 87.878
rwrist -36.8486
rhand -17.0807 10.0966
rfingers 7.12502
rthumb 9.15744 -19.6846
lclavicle -1.18277e-014 -1.03368e-014
lhumerus -56.0688 13.3039 51.0508
lradius 76.2626
lwrist 48.5103
lhand -23.5951 -7.84425
lfingers 7.12502
lthumb 2.8684 22.1162
rfemur -6.79069 -3.16704 14.3112
rtibia 36.0985
rfoot 23.7607 0.890466
rtoes -17.1353
lfemur -5.98981 2.88047 -17.2834
ltibia 34.5998
lfoot 24.9131 1.11267
ltoes -21.4775
35
root 4.2355 22.2974 -19.6694 4.97077 -1.57033 362.458
lowerback -11.0423 0.0757735 1.11261
upperback 3.27125 -0.129604 0.706388
thorax 9.72285 -0.0205086 0.104206
lowerneck 2.1098 -0.680228 2.7836
upperneck -2.19422 -0.927098 -4.09296
head -1.07663 -0.432128 -1.73981
rclavicle -1.23246e-014 -9.54166e-015
rhumerus -56.8416 -29.5275 -46.9432
rradius 90.2955
rwrist -35.8326
rhand -16.3096 10.6076
rfingers 7.12502
rthumb 9.90147 -19.1396
lclavicle -1.23246e-014 -9.54166e-015
lhumerus -55.4635 13.0276 50.844
lradius 78.0151
lwrist 48.0053
lhand -22.7448 -8.69516
lfingers 7.12502
lthumb 3.68952 21.2527
rfemur -7.09959 -3.43022 14.1755
rtibia 36.0245
rfoot 23.6087 0.690147
rtoes -15.5292
lfemur -6.21137 2.73836 -17.545
ltibia 34.6501
lfoot 24.5055 0.737774
ltoes -20.4878
36
root 4.23353 22.4994 -19.4835 4.98167 -1.62977 362.603
lowerback -11.1643 0.0884794 1.00296
upperback 3.15869 -0.0899942 0.632614
thorax 9.67079 -0.00579601 0.0943674
lowerneck 1.74333 -0.728191 2.84714
upperneck -1.79751 -0.987712 -4.17724
head -0.89228 -0.467478 -1.77547
rclavicle -8.05078e-015 -7.95139e-016
rhumerus -56.5421 -29.3044 -46.6446
rradius 92.621
rwrist -34.535
rhand -15.7817 10.9165
rfingers 7.12502
rthumb 10.4107 -18.8058
lclavicle -8.05078e-015 -7.95139e-016
lhumerus -54.7846 12.9274 50.6448
lradius 79.7428
lwrist 47.5944
lhand -22.0122 -8.91979
lfingers 7.12502
lthumb 4.39702 21.0146
rfemur -7.43519 -3.71375 14.0293
rtibia 35.9527
rfoot 23.2504 0.552084
rtoes -14.1607
lfemur -6.5236 2.80283 -17.8386
ltibia 34.7125
lfoot 24.0576 -0.286708
ltoes -20.1935
